<mxfile host="app.diagrams.net" agent="Mozilla/5.0 (X11; Linux x86_64) AppleWebKit/537.36 (KHTML, like Gecko) Chrome/139.0.0.0 Safari/537.36" version="28.1.0">
  <diagram name="Page-1" id="c5Dz2DNILQRuSKF1_B3-">
    <mxGraphModel dx="880" dy="873" grid="1" gridSize="10" guides="1" tooltips="1" connect="1" arrows="1" fold="1" page="1" pageScale="1" pageWidth="1169" pageHeight="827" math="0" shadow="0">
      <root>
        <mxCell id="0" />
        <mxCell id="1" parent="0" />
        <object label="Vendedor" id="guNllHrxD8ERAKnwKP9x-1">
          <mxCell style="shape=table;startSize=30;container=1;collapsible=1;childLayout=tableLayout;fixedRows=1;rowLines=0;fontStyle=1;align=center;resizeLast=1;html=1;miterlimit=6;" parent="1" vertex="1">
            <mxGeometry x="63" y="150" width="304" height="180" as="geometry" />
          </mxCell>
        </object>
        <mxCell id="guNllHrxD8ERAKnwKP9x-2" value="" style="shape=tableRow;horizontal=0;startSize=0;swimlaneHead=0;swimlaneBody=0;fillColor=none;collapsible=0;dropTarget=0;points=[[0,0.5],[1,0.5]];portConstraint=eastwest;top=0;left=0;right=0;bottom=1;" parent="guNllHrxD8ERAKnwKP9x-1" vertex="1">
          <mxGeometry y="30" width="304" height="30" as="geometry" />
        </mxCell>
        <mxCell id="guNllHrxD8ERAKnwKP9x-3" value="PK" style="shape=partialRectangle;connectable=0;fillColor=none;top=0;left=0;bottom=0;right=0;fontStyle=1;overflow=hidden;whiteSpace=wrap;html=1;" parent="guNllHrxD8ERAKnwKP9x-2" vertex="1">
          <mxGeometry width="30" height="30" as="geometry">
            <mxRectangle width="30" height="30" as="alternateBounds" />
          </mxGeometry>
        </mxCell>
        <mxCell id="guNllHrxD8ERAKnwKP9x-4" value="idVendedor INT o SERIAL NOT NULL UNIQUE" style="shape=partialRectangle;connectable=0;fillColor=none;top=0;left=0;bottom=0;right=0;align=left;spacingLeft=6;fontStyle=5;overflow=hidden;whiteSpace=wrap;html=1;" parent="guNllHrxD8ERAKnwKP9x-2" vertex="1">
          <mxGeometry x="30" width="274" height="30" as="geometry">
            <mxRectangle width="274" height="30" as="alternateBounds" />
          </mxGeometry>
        </mxCell>
        <mxCell id="guNllHrxD8ERAKnwKP9x-5" value="" style="shape=tableRow;horizontal=0;startSize=0;swimlaneHead=0;swimlaneBody=0;fillColor=none;collapsible=0;dropTarget=0;points=[[0,0.5],[1,0.5]];portConstraint=eastwest;top=0;left=0;right=0;bottom=0;" parent="guNllHrxD8ERAKnwKP9x-1" vertex="1">
          <mxGeometry y="60" width="304" height="30" as="geometry" />
        </mxCell>
        <mxCell id="guNllHrxD8ERAKnwKP9x-6" value="" style="shape=partialRectangle;connectable=0;fillColor=none;top=0;left=0;bottom=0;right=0;editable=1;overflow=hidden;whiteSpace=wrap;html=1;" parent="guNllHrxD8ERAKnwKP9x-5" vertex="1">
          <mxGeometry width="30" height="30" as="geometry">
            <mxRectangle width="30" height="30" as="alternateBounds" />
          </mxGeometry>
        </mxCell>
        <mxCell id="guNllHrxD8ERAKnwKP9x-7" value="nombre VARCHAR(50) NOT NULL" style="shape=partialRectangle;connectable=0;fillColor=none;top=0;left=0;bottom=0;right=0;align=left;spacingLeft=6;overflow=hidden;whiteSpace=wrap;html=1;" parent="guNllHrxD8ERAKnwKP9x-5" vertex="1">
          <mxGeometry x="30" width="274" height="30" as="geometry">
            <mxRectangle width="274" height="30" as="alternateBounds" />
          </mxGeometry>
        </mxCell>
        <mxCell id="guNllHrxD8ERAKnwKP9x-8" value="" style="shape=tableRow;horizontal=0;startSize=0;swimlaneHead=0;swimlaneBody=0;fillColor=none;collapsible=0;dropTarget=0;points=[[0,0.5],[1,0.5]];portConstraint=eastwest;top=0;left=0;right=0;bottom=0;" parent="guNllHrxD8ERAKnwKP9x-1" vertex="1">
          <mxGeometry y="90" width="304" height="30" as="geometry" />
        </mxCell>
        <mxCell id="guNllHrxD8ERAKnwKP9x-9" value="" style="shape=partialRectangle;connectable=0;fillColor=none;top=0;left=0;bottom=0;right=0;editable=1;overflow=hidden;whiteSpace=wrap;html=1;" parent="guNllHrxD8ERAKnwKP9x-8" vertex="1">
          <mxGeometry width="30" height="30" as="geometry">
            <mxRectangle width="30" height="30" as="alternateBounds" />
          </mxGeometry>
        </mxCell>
        <mxCell id="guNllHrxD8ERAKnwKP9x-10" value="apellido VARCHAR(50) NOT NULL" style="shape=partialRectangle;connectable=0;fillColor=none;top=0;left=0;bottom=0;right=0;align=left;spacingLeft=6;overflow=hidden;whiteSpace=wrap;html=1;" parent="guNllHrxD8ERAKnwKP9x-8" vertex="1">
          <mxGeometry x="30" width="274" height="30" as="geometry">
            <mxRectangle width="274" height="30" as="alternateBounds" />
          </mxGeometry>
        </mxCell>
        <mxCell id="guNllHrxD8ERAKnwKP9x-11" value="" style="shape=tableRow;horizontal=0;startSize=0;swimlaneHead=0;swimlaneBody=0;fillColor=none;collapsible=0;dropTarget=0;points=[[0,0.5],[1,0.5]];portConstraint=eastwest;top=0;left=0;right=0;bottom=0;" parent="guNllHrxD8ERAKnwKP9x-1" vertex="1">
          <mxGeometry y="120" width="304" height="30" as="geometry" />
        </mxCell>
        <mxCell id="guNllHrxD8ERAKnwKP9x-12" value="" style="shape=partialRectangle;connectable=0;fillColor=none;top=0;left=0;bottom=0;right=0;editable=1;overflow=hidden;whiteSpace=wrap;html=1;" parent="guNllHrxD8ERAKnwKP9x-11" vertex="1">
          <mxGeometry width="30" height="30" as="geometry">
            <mxRectangle width="30" height="30" as="alternateBounds" />
          </mxGeometry>
        </mxCell>
        <mxCell id="guNllHrxD8ERAKnwKP9x-13" value="telÃ©fono VARCHAR(20) NOT NULL" style="shape=partialRectangle;connectable=0;fillColor=none;top=0;left=0;bottom=0;right=0;align=left;spacingLeft=6;overflow=hidden;whiteSpace=wrap;html=1;" parent="guNllHrxD8ERAKnwKP9x-11" vertex="1">
          <mxGeometry x="30" width="274" height="30" as="geometry">
            <mxRectangle width="274" height="30" as="alternateBounds" />
          </mxGeometry>
        </mxCell>
        <mxCell id="guNllHrxD8ERAKnwKP9x-90" value="" style="shape=tableRow;horizontal=0;startSize=0;swimlaneHead=0;swimlaneBody=0;fillColor=none;collapsible=0;dropTarget=0;points=[[0,0.5],[1,0.5]];portConstraint=eastwest;top=0;left=0;right=0;bottom=0;" parent="guNllHrxD8ERAKnwKP9x-1" vertex="1">
          <mxGeometry y="150" width="304" height="30" as="geometry" />
        </mxCell>
        <mxCell id="guNllHrxD8ERAKnwKP9x-91" value="" style="shape=partialRectangle;connectable=0;fillColor=none;top=0;left=0;bottom=0;right=0;editable=1;overflow=hidden;whiteSpace=wrap;html=1;" parent="guNllHrxD8ERAKnwKP9x-90" vertex="1">
          <mxGeometry width="30" height="30" as="geometry">
            <mxRectangle width="30" height="30" as="alternateBounds" />
          </mxGeometry>
        </mxCell>
        <mxCell id="guNllHrxD8ERAKnwKP9x-92" value="email VARCHAR(100) NOT NULL" style="shape=partialRectangle;connectable=0;fillColor=none;top=0;left=0;bottom=0;right=0;align=left;spacingLeft=6;overflow=hidden;whiteSpace=wrap;html=1;" parent="guNllHrxD8ERAKnwKP9x-90" vertex="1">
          <mxGeometry x="30" width="274" height="30" as="geometry">
            <mxRectangle width="274" height="30" as="alternateBounds" />
          </mxGeometry>
        </mxCell>
        <mxCell id="guNllHrxD8ERAKnwKP9x-14" value="Cliente" style="shape=table;startSize=30;container=1;collapsible=1;childLayout=tableLayout;fixedRows=1;rowLines=0;fontStyle=1;align=center;resizeLast=1;html=1;" parent="1" vertex="1">
          <mxGeometry x="62" y="390" width="305" height="210" as="geometry" />
        </mxCell>
        <mxCell id="guNllHrxD8ERAKnwKP9x-15" value="" style="shape=tableRow;horizontal=0;startSize=0;swimlaneHead=0;swimlaneBody=0;fillColor=none;collapsible=0;dropTarget=0;points=[[0,0.5],[1,0.5]];portConstraint=eastwest;top=0;left=0;right=0;bottom=1;" parent="guNllHrxD8ERAKnwKP9x-14" vertex="1">
          <mxGeometry y="30" width="305" height="30" as="geometry" />
        </mxCell>
        <mxCell id="guNllHrxD8ERAKnwKP9x-16" value="PK" style="shape=partialRectangle;connectable=0;fillColor=none;top=0;left=0;bottom=0;right=0;fontStyle=1;overflow=hidden;whiteSpace=wrap;html=1;" parent="guNllHrxD8ERAKnwKP9x-15" vertex="1">
          <mxGeometry width="30" height="30" as="geometry">
            <mxRectangle width="30" height="30" as="alternateBounds" />
          </mxGeometry>
        </mxCell>
        <mxCell id="guNllHrxD8ERAKnwKP9x-17" value="idCliente INT o SERIAL NOT NULL UNIQUE" style="shape=partialRectangle;connectable=0;fillColor=none;top=0;left=0;bottom=0;right=0;align=left;spacingLeft=6;fontStyle=5;overflow=hidden;whiteSpace=wrap;html=1;" parent="guNllHrxD8ERAKnwKP9x-15" vertex="1">
          <mxGeometry x="30" width="275" height="30" as="geometry">
            <mxRectangle width="275" height="30" as="alternateBounds" />
          </mxGeometry>
        </mxCell>
        <mxCell id="guNllHrxD8ERAKnwKP9x-18" value="" style="shape=tableRow;horizontal=0;startSize=0;swimlaneHead=0;swimlaneBody=0;fillColor=none;collapsible=0;dropTarget=0;points=[[0,0.5],[1,0.5]];portConstraint=eastwest;top=0;left=0;right=0;bottom=0;" parent="guNllHrxD8ERAKnwKP9x-14" vertex="1">
          <mxGeometry y="60" width="305" height="30" as="geometry" />
        </mxCell>
        <mxCell id="guNllHrxD8ERAKnwKP9x-19" value="" style="shape=partialRectangle;connectable=0;fillColor=none;top=0;left=0;bottom=0;right=0;editable=1;overflow=hidden;whiteSpace=wrap;html=1;" parent="guNllHrxD8ERAKnwKP9x-18" vertex="1">
          <mxGeometry width="30" height="30" as="geometry">
            <mxRectangle width="30" height="30" as="alternateBounds" />
          </mxGeometry>
        </mxCell>
        <mxCell id="guNllHrxD8ERAKnwKP9x-20" value="nombre VARCHAR(50) NOT NULL" style="shape=partialRectangle;connectable=0;fillColor=none;top=0;left=0;bottom=0;right=0;align=left;spacingLeft=6;overflow=hidden;whiteSpace=wrap;html=1;" parent="guNllHrxD8ERAKnwKP9x-18" vertex="1">
          <mxGeometry x="30" width="275" height="30" as="geometry">
            <mxRectangle width="275" height="30" as="alternateBounds" />
          </mxGeometry>
        </mxCell>
        <mxCell id="guNllHrxD8ERAKnwKP9x-21" value="" style="shape=tableRow;horizontal=0;startSize=0;swimlaneHead=0;swimlaneBody=0;fillColor=none;collapsible=0;dropTarget=0;points=[[0,0.5],[1,0.5]];portConstraint=eastwest;top=0;left=0;right=0;bottom=0;" parent="guNllHrxD8ERAKnwKP9x-14" vertex="1">
          <mxGeometry y="90" width="305" height="30" as="geometry" />
        </mxCell>
        <mxCell id="guNllHrxD8ERAKnwKP9x-22" value="&lt;span style=&quot;white-space: pre;&quot;&gt;&#x9;&lt;/span&gt;&lt;span style=&quot;white-space: pre;&quot;&gt;&#x9;&lt;/span&gt;" style="shape=partialRectangle;connectable=0;fillColor=none;top=0;left=0;bottom=0;right=0;editable=1;overflow=hidden;whiteSpace=wrap;html=1;" parent="guNllHrxD8ERAKnwKP9x-21" vertex="1">
          <mxGeometry width="30" height="30" as="geometry">
            <mxRectangle width="30" height="30" as="alternateBounds" />
          </mxGeometry>
        </mxCell>
        <mxCell id="guNllHrxD8ERAKnwKP9x-23" value="apellido VARCHAR(50) NOT NULL" style="shape=partialRectangle;connectable=0;fillColor=none;top=0;left=0;bottom=0;right=0;align=left;spacingLeft=6;overflow=hidden;whiteSpace=wrap;html=1;" parent="guNllHrxD8ERAKnwKP9x-21" vertex="1">
          <mxGeometry x="30" width="275" height="30" as="geometry">
            <mxRectangle width="275" height="30" as="alternateBounds" />
          </mxGeometry>
        </mxCell>
        <mxCell id="NEjj8dAJcaVZSmYtqX-w-1" value="" style="shape=tableRow;horizontal=0;startSize=0;swimlaneHead=0;swimlaneBody=0;fillColor=none;collapsible=0;dropTarget=0;points=[[0,0.5],[1,0.5]];portConstraint=eastwest;top=0;left=0;right=0;bottom=0;" vertex="1" parent="guNllHrxD8ERAKnwKP9x-14">
          <mxGeometry y="120" width="305" height="30" as="geometry" />
        </mxCell>
        <mxCell id="NEjj8dAJcaVZSmYtqX-w-2" value="&lt;span style=&quot;white-space: pre;&quot;&gt;&#x9;&lt;/span&gt;&lt;span style=&quot;white-space: pre;&quot;&gt;&#x9;&lt;/span&gt;" style="shape=partialRectangle;connectable=0;fillColor=none;top=0;left=0;bottom=0;right=0;editable=1;overflow=hidden;whiteSpace=wrap;html=1;" vertex="1" parent="NEjj8dAJcaVZSmYtqX-w-1">
          <mxGeometry width="30" height="30" as="geometry">
            <mxRectangle width="30" height="30" as="alternateBounds" />
          </mxGeometry>
        </mxCell>
        <mxCell id="NEjj8dAJcaVZSmYtqX-w-3" value="telÃ©fono VARCHAR(20) NOT NULL" style="shape=partialRectangle;connectable=0;fillColor=none;top=0;left=0;bottom=0;right=0;align=left;spacingLeft=6;overflow=hidden;whiteSpace=wrap;html=1;" vertex="1" parent="NEjj8dAJcaVZSmYtqX-w-1">
          <mxGeometry x="30" width="275" height="30" as="geometry">
            <mxRectangle width="275" height="30" as="alternateBounds" />
          </mxGeometry>
        </mxCell>
        <mxCell id="guNllHrxD8ERAKnwKP9x-24" value="" style="shape=tableRow;horizontal=0;startSize=0;swimlaneHead=0;swimlaneBody=0;fillColor=none;collapsible=0;dropTarget=0;points=[[0,0.5],[1,0.5]];portConstraint=eastwest;top=0;left=0;right=0;bottom=0;" parent="guNllHrxD8ERAKnwKP9x-14" vertex="1">
          <mxGeometry y="150" width="305" height="30" as="geometry" />
        </mxCell>
        <mxCell id="guNllHrxD8ERAKnwKP9x-25" value="" style="shape=partialRectangle;connectable=0;fillColor=none;top=0;left=0;bottom=0;right=0;editable=1;overflow=hidden;whiteSpace=wrap;html=1;" parent="guNllHrxD8ERAKnwKP9x-24" vertex="1">
          <mxGeometry width="30" height="30" as="geometry">
            <mxRectangle width="30" height="30" as="alternateBounds" />
          </mxGeometry>
        </mxCell>
        <mxCell id="guNllHrxD8ERAKnwKP9x-26" value="DNI VARCHAR(20) NOT NULL UNIQUE" style="shape=partialRectangle;connectable=0;fillColor=none;top=0;left=0;bottom=0;right=0;align=left;spacingLeft=6;overflow=hidden;whiteSpace=wrap;html=1;" parent="guNllHrxD8ERAKnwKP9x-24" vertex="1">
          <mxGeometry x="30" width="275" height="30" as="geometry">
            <mxRectangle width="275" height="30" as="alternateBounds" />
          </mxGeometry>
        </mxCell>
        <mxCell id="guNllHrxD8ERAKnwKP9x-130" value="" style="shape=tableRow;horizontal=0;startSize=0;swimlaneHead=0;swimlaneBody=0;fillColor=none;collapsible=0;dropTarget=0;points=[[0,0.5],[1,0.5]];portConstraint=eastwest;top=0;left=0;right=0;bottom=0;" parent="guNllHrxD8ERAKnwKP9x-14" vertex="1">
          <mxGeometry y="180" width="305" height="30" as="geometry" />
        </mxCell>
        <mxCell id="guNllHrxD8ERAKnwKP9x-131" value="" style="shape=partialRectangle;connectable=0;fillColor=none;top=0;left=0;bottom=0;right=0;editable=1;overflow=hidden;whiteSpace=wrap;html=1;" parent="guNllHrxD8ERAKnwKP9x-130" vertex="1">
          <mxGeometry width="30" height="30" as="geometry">
            <mxRectangle width="30" height="30" as="alternateBounds" />
          </mxGeometry>
        </mxCell>
        <mxCell id="guNllHrxD8ERAKnwKP9x-132" value="email VARCHAR(100) NOT NULL" style="shape=partialRectangle;connectable=0;fillColor=none;top=0;left=0;bottom=0;right=0;align=left;spacingLeft=6;overflow=hidden;whiteSpace=wrap;html=1;" parent="guNllHrxD8ERAKnwKP9x-130" vertex="1">
          <mxGeometry x="30" width="275" height="30" as="geometry">
            <mxRectangle width="275" height="30" as="alternateBounds" />
          </mxGeometry>
        </mxCell>
        <mxCell id="guNllHrxD8ERAKnwKP9x-27" value="Venta" style="shape=table;startSize=30;container=1;collapsible=1;childLayout=tableLayout;fixedRows=1;rowLines=0;fontStyle=1;align=center;resizeLast=1;html=1;" parent="1" vertex="1">
          <mxGeometry x="582" y="220" width="285" height="180" as="geometry" />
        </mxCell>
        <mxCell id="guNllHrxD8ERAKnwKP9x-28" value="" style="shape=tableRow;horizontal=0;startSize=0;swimlaneHead=0;swimlaneBody=0;fillColor=none;collapsible=0;dropTarget=0;points=[[0,0.5],[1,0.5]];portConstraint=eastwest;top=0;left=0;right=0;bottom=1;" parent="guNllHrxD8ERAKnwKP9x-27" vertex="1">
          <mxGeometry y="30" width="285" height="30" as="geometry" />
        </mxCell>
        <mxCell id="guNllHrxD8ERAKnwKP9x-29" value="PK" style="shape=partialRectangle;connectable=0;fillColor=none;top=0;left=0;bottom=0;right=0;fontStyle=1;overflow=hidden;whiteSpace=wrap;html=1;" parent="guNllHrxD8ERAKnwKP9x-28" vertex="1">
          <mxGeometry width="30" height="30" as="geometry">
            <mxRectangle width="30" height="30" as="alternateBounds" />
          </mxGeometry>
        </mxCell>
        <mxCell id="guNllHrxD8ERAKnwKP9x-30" value="idVenta INT o SERIAL NOT NULL UNIQUE" style="shape=partialRectangle;connectable=0;fillColor=none;top=0;left=0;bottom=0;right=0;align=left;spacingLeft=6;fontStyle=5;overflow=hidden;whiteSpace=wrap;html=1;" parent="guNllHrxD8ERAKnwKP9x-28" vertex="1">
          <mxGeometry x="30" width="255" height="30" as="geometry">
            <mxRectangle width="255" height="30" as="alternateBounds" />
          </mxGeometry>
        </mxCell>
        <mxCell id="guNllHrxD8ERAKnwKP9x-37" value="" style="shape=tableRow;horizontal=0;startSize=0;swimlaneHead=0;swimlaneBody=0;fillColor=none;collapsible=0;dropTarget=0;points=[[0,0.5],[1,0.5]];portConstraint=eastwest;top=0;left=0;right=0;bottom=0;" parent="guNllHrxD8ERAKnwKP9x-27" vertex="1">
          <mxGeometry y="60" width="285" height="30" as="geometry" />
        </mxCell>
        <mxCell id="guNllHrxD8ERAKnwKP9x-38" value="FK" style="shape=partialRectangle;connectable=0;fillColor=none;top=0;left=0;bottom=0;right=0;editable=1;overflow=hidden;whiteSpace=wrap;html=1;" parent="guNllHrxD8ERAKnwKP9x-37" vertex="1">
          <mxGeometry width="30" height="30" as="geometry">
            <mxRectangle width="30" height="30" as="alternateBounds" />
          </mxGeometry>
        </mxCell>
        <mxCell id="guNllHrxD8ERAKnwKP9x-39" value="idVendedor INT NOT NULL" style="shape=partialRectangle;connectable=0;fillColor=none;top=0;left=0;bottom=0;right=0;align=left;spacingLeft=6;overflow=hidden;whiteSpace=wrap;html=1;" parent="guNllHrxD8ERAKnwKP9x-37" vertex="1">
          <mxGeometry x="30" width="255" height="30" as="geometry">
            <mxRectangle width="255" height="30" as="alternateBounds" />
          </mxGeometry>
        </mxCell>
        <mxCell id="guNllHrxD8ERAKnwKP9x-133" value="" style="shape=tableRow;horizontal=0;startSize=0;swimlaneHead=0;swimlaneBody=0;fillColor=none;collapsible=0;dropTarget=0;points=[[0,0.5],[1,0.5]];portConstraint=eastwest;top=0;left=0;right=0;bottom=0;" parent="guNllHrxD8ERAKnwKP9x-27" vertex="1">
          <mxGeometry y="90" width="285" height="30" as="geometry" />
        </mxCell>
        <mxCell id="guNllHrxD8ERAKnwKP9x-134" value="FK" style="shape=partialRectangle;connectable=0;fillColor=none;top=0;left=0;bottom=0;right=0;editable=1;overflow=hidden;whiteSpace=wrap;html=1;" parent="guNllHrxD8ERAKnwKP9x-133" vertex="1">
          <mxGeometry width="30" height="30" as="geometry">
            <mxRectangle width="30" height="30" as="alternateBounds" />
          </mxGeometry>
        </mxCell>
        <mxCell id="guNllHrxD8ERAKnwKP9x-135" value="idCliente INT NOT NULL" style="shape=partialRectangle;connectable=0;fillColor=none;top=0;left=0;bottom=0;right=0;align=left;spacingLeft=6;overflow=hidden;whiteSpace=wrap;html=1;" parent="guNllHrxD8ERAKnwKP9x-133" vertex="1">
          <mxGeometry x="30" width="255" height="30" as="geometry">
            <mxRectangle width="255" height="30" as="alternateBounds" />
          </mxGeometry>
        </mxCell>
        <mxCell id="guNllHrxD8ERAKnwKP9x-31" value="" style="shape=tableRow;horizontal=0;startSize=0;swimlaneHead=0;swimlaneBody=0;fillColor=none;collapsible=0;dropTarget=0;points=[[0,0.5],[1,0.5]];portConstraint=eastwest;top=0;left=0;right=0;bottom=0;" parent="guNllHrxD8ERAKnwKP9x-27" vertex="1">
          <mxGeometry y="120" width="285" height="30" as="geometry" />
        </mxCell>
        <mxCell id="guNllHrxD8ERAKnwKP9x-32" value="" style="shape=partialRectangle;connectable=0;fillColor=none;top=0;left=0;bottom=0;right=0;editable=1;overflow=hidden;whiteSpace=wrap;html=1;" parent="guNllHrxD8ERAKnwKP9x-31" vertex="1">
          <mxGeometry width="30" height="30" as="geometry">
            <mxRectangle width="30" height="30" as="alternateBounds" />
          </mxGeometry>
        </mxCell>
        <mxCell id="guNllHrxD8ERAKnwKP9x-33" value="fecha DATE NOT NULL" style="shape=partialRectangle;connectable=0;fillColor=none;top=0;left=0;bottom=0;right=0;align=left;spacingLeft=6;overflow=hidden;whiteSpace=wrap;html=1;" parent="guNllHrxD8ERAKnwKP9x-31" vertex="1">
          <mxGeometry x="30" width="255" height="30" as="geometry">
            <mxRectangle width="255" height="30" as="alternateBounds" />
          </mxGeometry>
        </mxCell>
        <mxCell id="guNllHrxD8ERAKnwKP9x-34" value="" style="shape=tableRow;horizontal=0;startSize=0;swimlaneHead=0;swimlaneBody=0;fillColor=none;collapsible=0;dropTarget=0;points=[[0,0.5],[1,0.5]];portConstraint=eastwest;top=0;left=0;right=0;bottom=0;" parent="guNllHrxD8ERAKnwKP9x-27" vertex="1">
          <mxGeometry y="150" width="285" height="30" as="geometry" />
        </mxCell>
        <mxCell id="guNllHrxD8ERAKnwKP9x-35" value="" style="shape=partialRectangle;connectable=0;fillColor=none;top=0;left=0;bottom=0;right=0;editable=1;overflow=hidden;whiteSpace=wrap;html=1;" parent="guNllHrxD8ERAKnwKP9x-34" vertex="1">
          <mxGeometry width="30" height="30" as="geometry">
            <mxRectangle width="30" height="30" as="alternateBounds" />
          </mxGeometry>
        </mxCell>
        <mxCell id="guNllHrxD8ERAKnwKP9x-36" value="&lt;div&gt;total DECIMAL(10, 2) NOT NULL&lt;/div&gt;" style="shape=partialRectangle;connectable=0;fillColor=none;top=0;left=0;bottom=0;right=0;align=left;spacingLeft=6;overflow=hidden;whiteSpace=wrap;html=1;" parent="guNllHrxD8ERAKnwKP9x-34" vertex="1">
          <mxGeometry x="30" width="255" height="30" as="geometry">
            <mxRectangle width="255" height="30" as="alternateBounds" />
          </mxGeometry>
        </mxCell>
        <mxCell id="guNllHrxD8ERAKnwKP9x-40" value="Calzado" style="shape=table;startSize=30;container=1;collapsible=1;childLayout=tableLayout;fixedRows=1;rowLines=0;fontStyle=1;align=center;resizeLast=1;html=1;" parent="1" vertex="1">
          <mxGeometry x="418" y="510" width="290" height="180" as="geometry" />
        </mxCell>
        <mxCell id="guNllHrxD8ERAKnwKP9x-41" value="" style="shape=tableRow;horizontal=0;startSize=0;swimlaneHead=0;swimlaneBody=0;fillColor=none;collapsible=0;dropTarget=0;points=[[0,0.5],[1,0.5]];portConstraint=eastwest;top=0;left=0;right=0;bottom=1;" parent="guNllHrxD8ERAKnwKP9x-40" vertex="1">
          <mxGeometry y="30" width="290" height="30" as="geometry" />
        </mxCell>
        <mxCell id="guNllHrxD8ERAKnwKP9x-42" value="PK" style="shape=partialRectangle;connectable=0;fillColor=none;top=0;left=0;bottom=0;right=0;fontStyle=1;overflow=hidden;whiteSpace=wrap;html=1;" parent="guNllHrxD8ERAKnwKP9x-41" vertex="1">
          <mxGeometry width="30" height="30" as="geometry">
            <mxRectangle width="30" height="30" as="alternateBounds" />
          </mxGeometry>
        </mxCell>
        <mxCell id="guNllHrxD8ERAKnwKP9x-43" value="idCalzado INT o SERIAL NOT NULL UNIQUE" style="shape=partialRectangle;connectable=0;fillColor=none;top=0;left=0;bottom=0;right=0;align=left;spacingLeft=6;fontStyle=5;overflow=hidden;whiteSpace=wrap;html=1;" parent="guNllHrxD8ERAKnwKP9x-41" vertex="1">
          <mxGeometry x="30" width="260" height="30" as="geometry">
            <mxRectangle width="260" height="30" as="alternateBounds" />
          </mxGeometry>
        </mxCell>
        <mxCell id="guNllHrxD8ERAKnwKP9x-44" value="" style="shape=tableRow;horizontal=0;startSize=0;swimlaneHead=0;swimlaneBody=0;fillColor=none;collapsible=0;dropTarget=0;points=[[0,0.5],[1,0.5]];portConstraint=eastwest;top=0;left=0;right=0;bottom=0;" parent="guNllHrxD8ERAKnwKP9x-40" vertex="1">
          <mxGeometry y="60" width="290" height="30" as="geometry" />
        </mxCell>
        <mxCell id="guNllHrxD8ERAKnwKP9x-45" value="" style="shape=partialRectangle;connectable=0;fillColor=none;top=0;left=0;bottom=0;right=0;editable=1;overflow=hidden;whiteSpace=wrap;html=1;" parent="guNllHrxD8ERAKnwKP9x-44" vertex="1">
          <mxGeometry width="30" height="30" as="geometry">
            <mxRectangle width="30" height="30" as="alternateBounds" />
          </mxGeometry>
        </mxCell>
        <mxCell id="guNllHrxD8ERAKnwKP9x-46" value="descripciÃ³n VARCHAR(100) NOT NULL" style="shape=partialRectangle;connectable=0;fillColor=none;top=0;left=0;bottom=0;right=0;align=left;spacingLeft=6;overflow=hidden;whiteSpace=wrap;html=1;" parent="guNllHrxD8ERAKnwKP9x-44" vertex="1">
          <mxGeometry x="30" width="260" height="30" as="geometry">
            <mxRectangle width="260" height="30" as="alternateBounds" />
          </mxGeometry>
        </mxCell>
        <mxCell id="guNllHrxD8ERAKnwKP9x-139" value="" style="shape=tableRow;horizontal=0;startSize=0;swimlaneHead=0;swimlaneBody=0;fillColor=none;collapsible=0;dropTarget=0;points=[[0,0.5],[1,0.5]];portConstraint=eastwest;top=0;left=0;right=0;bottom=0;" parent="guNllHrxD8ERAKnwKP9x-40" vertex="1">
          <mxGeometry y="90" width="290" height="30" as="geometry" />
        </mxCell>
        <mxCell id="guNllHrxD8ERAKnwKP9x-140" value="" style="shape=partialRectangle;connectable=0;fillColor=none;top=0;left=0;bottom=0;right=0;editable=1;overflow=hidden;whiteSpace=wrap;html=1;" parent="guNllHrxD8ERAKnwKP9x-139" vertex="1">
          <mxGeometry width="30" height="30" as="geometry">
            <mxRectangle width="30" height="30" as="alternateBounds" />
          </mxGeometry>
        </mxCell>
        <mxCell id="guNllHrxD8ERAKnwKP9x-141" value="talla INT NOT NULL" style="shape=partialRectangle;connectable=0;fillColor=none;top=0;left=0;bottom=0;right=0;align=left;spacingLeft=6;overflow=hidden;whiteSpace=wrap;html=1;" parent="guNllHrxD8ERAKnwKP9x-139" vertex="1">
          <mxGeometry x="30" width="260" height="30" as="geometry">
            <mxRectangle width="260" height="30" as="alternateBounds" />
          </mxGeometry>
        </mxCell>
        <mxCell id="guNllHrxD8ERAKnwKP9x-47" value="" style="shape=tableRow;horizontal=0;startSize=0;swimlaneHead=0;swimlaneBody=0;fillColor=none;collapsible=0;dropTarget=0;points=[[0,0.5],[1,0.5]];portConstraint=eastwest;top=0;left=0;right=0;bottom=0;" parent="guNllHrxD8ERAKnwKP9x-40" vertex="1">
          <mxGeometry y="120" width="290" height="30" as="geometry" />
        </mxCell>
        <mxCell id="guNllHrxD8ERAKnwKP9x-48" value="" style="shape=partialRectangle;connectable=0;fillColor=none;top=0;left=0;bottom=0;right=0;editable=1;overflow=hidden;whiteSpace=wrap;html=1;" parent="guNllHrxD8ERAKnwKP9x-47" vertex="1">
          <mxGeometry width="30" height="30" as="geometry">
            <mxRectangle width="30" height="30" as="alternateBounds" />
          </mxGeometry>
        </mxCell>
        <mxCell id="guNllHrxD8ERAKnwKP9x-49" value="color VARCHAR(30) NOT NULL" style="shape=partialRectangle;connectable=0;fillColor=none;top=0;left=0;bottom=0;right=0;align=left;spacingLeft=6;overflow=hidden;whiteSpace=wrap;html=1;" parent="guNllHrxD8ERAKnwKP9x-47" vertex="1">
          <mxGeometry x="30" width="260" height="30" as="geometry">
            <mxRectangle width="260" height="30" as="alternateBounds" />
          </mxGeometry>
        </mxCell>
        <mxCell id="guNllHrxD8ERAKnwKP9x-50" value="" style="shape=tableRow;horizontal=0;startSize=0;swimlaneHead=0;swimlaneBody=0;fillColor=none;collapsible=0;dropTarget=0;points=[[0,0.5],[1,0.5]];portConstraint=eastwest;top=0;left=0;right=0;bottom=0;" parent="guNllHrxD8ERAKnwKP9x-40" vertex="1">
          <mxGeometry y="150" width="290" height="30" as="geometry" />
        </mxCell>
        <mxCell id="guNllHrxD8ERAKnwKP9x-51" value="" style="shape=partialRectangle;connectable=0;fillColor=none;top=0;left=0;bottom=0;right=0;editable=1;overflow=hidden;whiteSpace=wrap;html=1;" parent="guNllHrxD8ERAKnwKP9x-50" vertex="1">
          <mxGeometry width="30" height="30" as="geometry">
            <mxRectangle width="30" height="30" as="alternateBounds" />
          </mxGeometry>
        </mxCell>
        <mxCell id="guNllHrxD8ERAKnwKP9x-52" value="precio DECIMAL(10,2) NOT NULL" style="shape=partialRectangle;connectable=0;fillColor=none;top=0;left=0;bottom=0;right=0;align=left;spacingLeft=6;overflow=hidden;whiteSpace=wrap;html=1;" parent="guNllHrxD8ERAKnwKP9x-50" vertex="1">
          <mxGeometry x="30" width="260" height="30" as="geometry">
            <mxRectangle width="260" height="30" as="alternateBounds" />
          </mxGeometry>
        </mxCell>
        <mxCell id="guNllHrxD8ERAKnwKP9x-53" value="&lt;div style=&quot;text-align: start;&quot;&gt;&lt;font face=&quot;-apple-system, BlinkMacSystemFont, Inter, Vazirmatn, ui-sans-serif, system-ui, Segoe UI, Roboto, Ubuntu, Cantarell, Noto Sans, sans-serif, Helvetica Neue, Arial, Apple Color Emoji, Segoe UI Emoji, Segoe UI Symbol, Noto Color Emoji&quot;&gt;&lt;span style=&quot;font-weight: 400; white-space: pre-line;&quot;&gt;DetalleVenta&lt;/span&gt;&lt;/font&gt;&lt;/div&gt;" style="shape=table;startSize=30;container=1;collapsible=1;childLayout=tableLayout;fixedRows=1;rowLines=0;fontStyle=1;align=center;resizeLast=1;html=1;" parent="1" vertex="1">
          <mxGeometry x="817" y="530" width="290" height="180" as="geometry" />
        </mxCell>
        <mxCell id="guNllHrxD8ERAKnwKP9x-54" value="" style="shape=tableRow;horizontal=0;startSize=0;swimlaneHead=0;swimlaneBody=0;fillColor=none;collapsible=0;dropTarget=0;points=[[0,0.5],[1,0.5]];portConstraint=eastwest;top=0;left=0;right=0;bottom=1;" parent="guNllHrxD8ERAKnwKP9x-53" vertex="1">
          <mxGeometry y="30" width="290" height="30" as="geometry" />
        </mxCell>
        <mxCell id="guNllHrxD8ERAKnwKP9x-55" value="PK" style="shape=partialRectangle;connectable=0;fillColor=none;top=0;left=0;bottom=0;right=0;fontStyle=1;overflow=hidden;whiteSpace=wrap;html=1;" parent="guNllHrxD8ERAKnwKP9x-54" vertex="1">
          <mxGeometry width="30" height="30" as="geometry">
            <mxRectangle width="30" height="30" as="alternateBounds" />
          </mxGeometry>
        </mxCell>
        <mxCell id="guNllHrxD8ERAKnwKP9x-56" value="idDetalle INT o SERIAL NOT NULL UNIQUE" style="shape=partialRectangle;connectable=0;fillColor=none;top=0;left=0;bottom=0;right=0;align=left;spacingLeft=6;fontStyle=5;overflow=hidden;whiteSpace=wrap;html=1;" parent="guNllHrxD8ERAKnwKP9x-54" vertex="1">
          <mxGeometry x="30" width="260" height="30" as="geometry">
            <mxRectangle width="260" height="30" as="alternateBounds" />
          </mxGeometry>
        </mxCell>
        <mxCell id="guNllHrxD8ERAKnwKP9x-57" value="" style="shape=tableRow;horizontal=0;startSize=0;swimlaneHead=0;swimlaneBody=0;fillColor=none;collapsible=0;dropTarget=0;points=[[0,0.5],[1,0.5]];portConstraint=eastwest;top=0;left=0;right=0;bottom=0;" parent="guNllHrxD8ERAKnwKP9x-53" vertex="1">
          <mxGeometry y="60" width="290" height="30" as="geometry" />
        </mxCell>
        <mxCell id="guNllHrxD8ERAKnwKP9x-58" value="FK" style="shape=partialRectangle;connectable=0;fillColor=none;top=0;left=0;bottom=0;right=0;editable=1;overflow=hidden;whiteSpace=wrap;html=1;" parent="guNllHrxD8ERAKnwKP9x-57" vertex="1">
          <mxGeometry width="30" height="30" as="geometry">
            <mxRectangle width="30" height="30" as="alternateBounds" />
          </mxGeometry>
        </mxCell>
        <mxCell id="guNllHrxD8ERAKnwKP9x-59" value="idVenta INT NOT NULL" style="shape=partialRectangle;connectable=0;fillColor=none;top=0;left=0;bottom=0;right=0;align=left;spacingLeft=6;overflow=hidden;whiteSpace=wrap;html=1;" parent="guNllHrxD8ERAKnwKP9x-57" vertex="1">
          <mxGeometry x="30" width="260" height="30" as="geometry">
            <mxRectangle width="260" height="30" as="alternateBounds" />
          </mxGeometry>
        </mxCell>
        <mxCell id="guNllHrxD8ERAKnwKP9x-142" value="" style="shape=tableRow;horizontal=0;startSize=0;swimlaneHead=0;swimlaneBody=0;fillColor=none;collapsible=0;dropTarget=0;points=[[0,0.5],[1,0.5]];portConstraint=eastwest;top=0;left=0;right=0;bottom=0;" parent="guNllHrxD8ERAKnwKP9x-53" vertex="1">
          <mxGeometry y="90" width="290" height="30" as="geometry" />
        </mxCell>
        <mxCell id="guNllHrxD8ERAKnwKP9x-143" value="FK" style="shape=partialRectangle;connectable=0;fillColor=none;top=0;left=0;bottom=0;right=0;editable=1;overflow=hidden;whiteSpace=wrap;html=1;" parent="guNllHrxD8ERAKnwKP9x-142" vertex="1">
          <mxGeometry width="30" height="30" as="geometry">
            <mxRectangle width="30" height="30" as="alternateBounds" />
          </mxGeometry>
        </mxCell>
        <mxCell id="guNllHrxD8ERAKnwKP9x-144" value="idCalzado NOT NULL" style="shape=partialRectangle;connectable=0;fillColor=none;top=0;left=0;bottom=0;right=0;align=left;spacingLeft=6;overflow=hidden;whiteSpace=wrap;html=1;" parent="guNllHrxD8ERAKnwKP9x-142" vertex="1">
          <mxGeometry x="30" width="260" height="30" as="geometry">
            <mxRectangle width="260" height="30" as="alternateBounds" />
          </mxGeometry>
        </mxCell>
        <mxCell id="guNllHrxD8ERAKnwKP9x-60" value="" style="shape=tableRow;horizontal=0;startSize=0;swimlaneHead=0;swimlaneBody=0;fillColor=none;collapsible=0;dropTarget=0;points=[[0,0.5],[1,0.5]];portConstraint=eastwest;top=0;left=0;right=0;bottom=0;" parent="guNllHrxD8ERAKnwKP9x-53" vertex="1">
          <mxGeometry y="120" width="290" height="30" as="geometry" />
        </mxCell>
        <mxCell id="guNllHrxD8ERAKnwKP9x-61" value="" style="shape=partialRectangle;connectable=0;fillColor=none;top=0;left=0;bottom=0;right=0;editable=1;overflow=hidden;whiteSpace=wrap;html=1;" parent="guNllHrxD8ERAKnwKP9x-60" vertex="1">
          <mxGeometry width="30" height="30" as="geometry">
            <mxRectangle width="30" height="30" as="alternateBounds" />
          </mxGeometry>
        </mxCell>
        <mxCell id="guNllHrxD8ERAKnwKP9x-62" value="cantidad NOT NULL" style="shape=partialRectangle;connectable=0;fillColor=none;top=0;left=0;bottom=0;right=0;align=left;spacingLeft=6;overflow=hidden;whiteSpace=wrap;html=1;" parent="guNllHrxD8ERAKnwKP9x-60" vertex="1">
          <mxGeometry x="30" width="260" height="30" as="geometry">
            <mxRectangle width="260" height="30" as="alternateBounds" />
          </mxGeometry>
        </mxCell>
        <mxCell id="guNllHrxD8ERAKnwKP9x-63" value="" style="shape=tableRow;horizontal=0;startSize=0;swimlaneHead=0;swimlaneBody=0;fillColor=none;collapsible=0;dropTarget=0;points=[[0,0.5],[1,0.5]];portConstraint=eastwest;top=0;left=0;right=0;bottom=0;" parent="guNllHrxD8ERAKnwKP9x-53" vertex="1">
          <mxGeometry y="150" width="290" height="30" as="geometry" />
        </mxCell>
        <mxCell id="guNllHrxD8ERAKnwKP9x-64" value="" style="shape=partialRectangle;connectable=0;fillColor=none;top=0;left=0;bottom=0;right=0;editable=1;overflow=hidden;whiteSpace=wrap;html=1;" parent="guNllHrxD8ERAKnwKP9x-63" vertex="1">
          <mxGeometry width="30" height="30" as="geometry">
            <mxRectangle width="30" height="30" as="alternateBounds" />
          </mxGeometry>
        </mxCell>
        <mxCell id="guNllHrxD8ERAKnwKP9x-65" value="precioUnitario NOT NULL" style="shape=partialRectangle;connectable=0;fillColor=none;top=0;left=0;bottom=0;right=0;align=left;spacingLeft=6;overflow=hidden;whiteSpace=wrap;html=1;" parent="guNllHrxD8ERAKnwKP9x-63" vertex="1">
          <mxGeometry x="30" width="260" height="30" as="geometry">
            <mxRectangle width="260" height="30" as="alternateBounds" />
          </mxGeometry>
        </mxCell>
        <mxCell id="guNllHrxD8ERAKnwKP9x-177" value="" style="edgeStyle=entityRelationEdgeStyle;fontSize=12;html=1;endArrow=ERoneToMany;startArrow=ERmandOne;rounded=0;exitX=1;exitY=0.5;exitDx=0;exitDy=0;entryX=0;entryY=0.5;entryDx=0;entryDy=0;" parent="1" target="guNllHrxD8ERAKnwKP9x-133" edge="1" source="guNllHrxD8ERAKnwKP9x-15">
          <mxGeometry width="100" height="100" relative="1" as="geometry">
            <mxPoint x="242" y="440" as="sourcePoint" />
            <mxPoint x="552" y="400" as="targetPoint" />
          </mxGeometry>
        </mxCell>
        <mxCell id="guNllHrxD8ERAKnwKP9x-178" value="" style="edgeStyle=entityRelationEdgeStyle;fontSize=12;html=1;endArrow=ERoneToMany;startArrow=ERmandOne;rounded=0;exitX=1.002;exitY=0.082;exitDx=0;exitDy=0;exitPerimeter=0;entryX=0;entryY=0.5;entryDx=0;entryDy=0;" parent="1" target="guNllHrxD8ERAKnwKP9x-37" edge="1" source="guNllHrxD8ERAKnwKP9x-1">
          <mxGeometry width="100" height="100" relative="1" as="geometry">
            <mxPoint x="252" y="160" as="sourcePoint" />
            <mxPoint x="582" y="385" as="targetPoint" />
          </mxGeometry>
        </mxCell>
        <mxCell id="guNllHrxD8ERAKnwKP9x-179" value="" style="edgeStyle=entityRelationEdgeStyle;fontSize=12;html=1;endArrow=ERoneToMany;startArrow=ERmandOne;rounded=0;exitX=1;exitY=0.5;exitDx=0;exitDy=0;" parent="1" edge="1" source="guNllHrxD8ERAKnwKP9x-28">
          <mxGeometry width="100" height="100" relative="1" as="geometry">
            <mxPoint x="857" y="260" as="sourcePoint" />
            <mxPoint x="817" y="600" as="targetPoint" />
          </mxGeometry>
        </mxCell>
        <mxCell id="guNllHrxD8ERAKnwKP9x-180" value="" style="edgeStyle=entityRelationEdgeStyle;fontSize=12;html=1;endArrow=ERoneToMany;startArrow=ERmandOne;rounded=0;exitX=1;exitY=0.5;exitDx=0;exitDy=0;" parent="1" edge="1" source="guNllHrxD8ERAKnwKP9x-41">
          <mxGeometry width="100" height="100" relative="1" as="geometry">
            <mxPoint x="582" y="605.22" as="sourcePoint" />
            <mxPoint x="817" y="635" as="targetPoint" />
          </mxGeometry>
        </mxCell>
        <mxCell id="NEjj8dAJcaVZSmYtqX-w-5" value="&lt;span style=&quot;white-space: pre;&quot;&gt;&#x9;&lt;/span&gt;&amp;nbsp; &amp;nbsp;TP3 - Diagrama entidad-relacion (ER) en base al Caso de Estudio de una Tienda de Calzados" style="text;html=1;align=center;verticalAlign=middle;resizable=0;points=[];autosize=1;strokeColor=none;fillColor=none;" vertex="1" parent="1">
          <mxGeometry x="25" y="50" width="560" height="30" as="geometry" />
        </mxCell>
        <mxCell id="NEjj8dAJcaVZSmYtqX-w-6" value="Bases de datos I - Unidad 3 - Modelo Relacional" style="text;html=1;align=center;verticalAlign=middle;resizable=0;points=[];autosize=1;strokeColor=none;fillColor=none;" vertex="1" parent="1">
          <mxGeometry x="62" y="20" width="280" height="30" as="geometry" />
        </mxCell>
        <mxCell id="NEjj8dAJcaVZSmYtqX-w-7" value="/&amp;nbsp; &amp;nbsp; Santiago Octavio Varela &amp;lt;santiago.varela@tupad.utn.edu.ar&amp;gt;" style="text;html=1;align=center;verticalAlign=middle;resizable=0;points=[];autosize=1;strokeColor=none;fillColor=none;" vertex="1" parent="1">
          <mxGeometry x="325" y="20" width="370" height="30" as="geometry" />
        </mxCell>
        <mxCell id="NEjj8dAJcaVZSmYtqX-w-8" value="MÃ¡s detalles (primeras consignas) en GitHub:&amp;nbsp;" style="text;html=1;align=center;verticalAlign=middle;resizable=0;points=[];autosize=1;strokeColor=none;fillColor=none;" vertex="1" parent="1">
          <mxGeometry x="63" y="80" width="270" height="30" as="geometry" />
        </mxCell>
      </root>
    </mxGraphModel>
  </diagram>
</mxfile>
